<svg viewBox="0 0 30 16" fill="none" xmlns="http://www.w3.org/2000/svg">
<path d="M10.9656 5.42614C9.06909 3.44509 6.40861 2.18263 4.17528 4.3581C3.44548 5.06685 2.92315 6.03153 2.69371 7.06513C2.42034 8.29068 2.62537 9.4104 3.13062 10.3333C3.57972 11.1552 4.26559 11.827 5.07349 12.2897C5.88384 12.7548 6.80646 13.0058 7.72176 12.9788C8.72737 12.9492 9.73298 12.5752 10.5775 11.7704C11.7711 10.631 12.8133 8.92806 13.8311 7.26692C14.9441 5.45075 16.0278 3.68134 17.358 2.48532C18.3075 1.63138 19.3229 1.08013 20.3529 0.777434C21.832 0.344309 23.3112 0.440286 24.656 0.912786C25.979 1.37544 27.1652 2.19739 28.0781 3.23099C28.8542 4.10708 29.4449 5.15052 29.7671 6.26532C30.2357 7.88954 29.9526 9.83614 29.0983 11.5391C28.493 12.7425 27.5948 13.8475 26.4671 14.6448C25.3077 15.4643 23.9116 15.959 22.3495 15.9122C20.5628 15.8581 18.5907 15.1001 16.5575 13.3036L18.2489 11.3545C19.7891 12.7154 21.1974 13.2864 22.4203 13.3233C23.3917 13.3528 24.2655 13.0403 24.9978 12.5235C25.7617 11.9845 26.3793 11.2192 26.804 10.3726C27.38 9.22583 27.585 7.97321 27.3019 6.98884C27.092 6.2604 26.6917 5.56396 26.1571 4.95857C25.5225 4.23997 24.7122 3.67396 23.8237 3.36142C22.9572 3.05872 22.0078 2.99228 21.0705 3.2679C20.4042 3.46232 19.7281 3.83638 19.0715 4.427C18.0049 5.38677 17.0237 6.98638 16.018 8.63029C14.9099 10.4391 13.775 12.2922 12.3495 13.6506C11.012 14.9278 9.40348 15.5209 7.79255 15.5701C6.39885 15.612 5.01003 15.2404 3.80428 14.5464C2.59364 13.8524 1.55874 12.8336 0.875315 11.5834C0.0844955 10.1388 -0.235249 8.39403 0.187009 6.49665C0.526281 4.97579 1.3049 3.55091 2.39593 2.49025C3.13062 1.77657 4.00686 1.22286 4.99051 0.910325C5.98147 0.595325 7.07007 0.528879 8.22213 0.789739C9.70614 1.12689 11.2756 2.01036 12.823 3.62966L10.9656 5.42614Z" fill="white"/>
</svg>
