<svg width="351" height="359" viewBox="0 0 351 359" fill="none" xmlns="http://www.w3.org/2000/svg">
<g clip-path="url(#clip0_948:9014)">
<path d="M351 358.345C351 358.431 350.983 358.517 350.951 358.596C350.918 358.676 350.87 358.748 350.809 358.809C350.748 358.87 350.675 358.918 350.596 358.951C350.516 358.984 350.431 359 350.345 359H0.655027C0.481303 359 0.314693 358.931 0.191852 358.808C0.0690105 358.685 0 358.519 0 358.345C0 358.172 0.0690105 358.005 0.191852 357.882C0.314693 357.759 0.481303 357.69 0.655027 357.69H350.345C350.431 357.69 350.516 357.707 350.596 357.74C350.675 357.773 350.748 357.821 350.809 357.882C350.87 357.943 350.918 358.015 350.951 358.094C350.983 358.174 351 358.259 351 358.345Z" fill="#CCCCCC"/>
<path d="M284.631 16.2192C284.199 13.8173 283.131 11.5751 281.538 9.7265C279.271 7.14795 276.519 5.0409 273.438 3.52566C270.357 2.01042 267.007 1.11667 263.58 0.895436C260.154 0.674202 256.717 1.12982 253.467 2.23628C250.216 3.34273 247.215 5.07835 244.636 7.34404L244.416 7.54212C241.337 4.5588 237.584 2.36144 233.475 1.13629C229.365 -0.088855 225.021 -0.305686 220.811 0.504183C216.6 1.31405 212.646 3.12675 209.285 5.78863C205.924 8.45052 203.255 11.8831 201.503 15.7955C199.894 19.3758 199.156 23.2864 199.35 27.2067C199.544 31.1271 200.665 34.9456 202.621 38.3494C203.498 39.8841 204.529 41.3257 205.698 42.6521C206.903 44.0277 239.445 80.2162 239.77 80.5793C239.809 80.6245 239.857 80.6607 239.911 80.6854C239.965 80.7101 240.024 80.7227 240.084 80.7224C240.095 80.7224 240.111 80.7169 240.128 80.7169C240.151 80.7166 240.173 80.711 240.194 80.7004C240.301 80.6744 240.394 80.6072 240.453 80.5133L240.623 80.2327L240.827 79.886L243.838 74.857C252.188 60.9087 263.445 47.7473 277.299 35.7413C278.191 34.967 279.018 34.1204 279.771 33.2102C282.735 29.6676 284.524 25.2911 284.89 20.6871C284.994 19.1928 284.907 17.6914 284.631 16.2192Z" fill="#3F51B5"/>
<path d="M135.331 299.122L141.46 279.17C134.086 271.058 124.842 264.867 114.532 261.136C124.605 277.818 114.844 299.581 118.912 318.637C120.226 324.571 122.859 330.134 126.616 334.912C130.373 339.69 135.158 343.562 140.615 346.241L149.916 357.76C154.791 349.245 157.762 339.774 158.624 330.001C159.485 320.228 158.217 310.384 154.906 301.148C152.998 295.985 150.446 291.083 147.312 286.557C141.785 293.052 135.331 299.122 135.331 299.122Z" fill="#F2F2F2"/>
<path d="M101.632 301.672L98.2162 281.082C87.9967 277.108 76.9614 275.688 66.0684 276.945C82.5274 287.386 83.5 311.215 95.6429 326.459C99.4666 331.184 104.305 334.988 109.8 337.59C115.294 340.192 121.304 341.525 127.384 341.489L140.847 347.653C141.412 337.858 139.846 328.057 136.257 318.926C132.668 309.794 127.141 301.549 120.057 294.758C116.045 290.988 111.574 287.738 106.75 285.084C104.701 293.361 101.632 301.672 101.632 301.672Z" fill="#F2F2F2"/>
<path d="M168.914 166.651L167.222 170.585L169.987 184.559L198.2 180.637L197.975 163.599L197.409 159.867L168.914 166.651Z" fill="#FFB6B6"/>
<path d="M154.338 347.746H160.562L163.524 323.748H154.338V347.746Z" fill="#FFB6B6"/>
<path d="M171.704 353.679L162.253 347.152V342.89L161.154 342.959L154.337 343.364L152.309 343.483L151.054 358.527H155.517L156.31 354.315L158.351 358.527H170.193C170.76 358.527 171.312 358.345 171.769 358.009C172.226 357.673 172.563 357.2 172.732 356.658C172.901 356.117 172.892 355.536 172.707 355C172.522 354.464 172.17 354.001 171.704 353.679Z" fill="#2F2E41"/>
<path d="M189.301 347.747H195.525L199.187 312.415L187.491 311.716L189.301 347.747Z" fill="#FFB6B6"/>
<path d="M206.667 353.679L197.216 347.152V342.89L196.018 342.959L189.082 343.377L187.272 343.483L186.017 358.527H190.481L191.273 354.315L193.315 358.527H205.156C205.724 358.527 206.276 358.345 206.733 358.009C207.189 357.673 207.527 357.2 207.695 356.658C207.864 356.117 207.855 355.536 207.67 355C207.485 354.464 207.134 354.001 206.667 353.679Z" fill="#2F2E41"/>
<path d="M151.696 327.051H151.72L152.917 288.03C152.142 286.536 151.749 284.874 151.772 283.192C151.796 281.509 152.235 279.859 153.051 278.387L153.222 278.077L152.778 276.018C152.207 273.373 152.469 270.615 153.528 268.125L154.644 231.725C150.655 205.879 169.668 189.022 169.668 189.022L167.921 175.476L198.674 176.174L198.151 189.022L204.266 210.024C207.484 241.364 207.675 272.068 204.383 302.039C204.377 302.125 204.389 302.212 204.421 302.292C204.755 303.307 204.873 304.381 204.766 305.445C204.66 306.508 204.332 307.538 203.803 308.466C203.666 308.704 203.571 308.963 203.524 309.233C202.846 314.487 202.758 307.84 201.859 313.048L202.034 313.137C202.664 313.354 202.934 314.226 202.637 315.084C202.341 315.943 201.59 316.463 200.96 316.245L184.52 316.421C183.891 316.204 183.621 315.332 183.917 314.473C184.213 313.615 184.964 313.095 185.594 313.312L186.617 313.829L184.905 308.233L184.306 307.673C184.018 307.405 183.795 307.076 183.653 306.709C183.512 306.342 183.454 305.949 183.486 305.557C183.518 305.165 183.638 304.786 183.838 304.447C184.037 304.108 184.31 303.819 184.637 303.601L185.134 287.354L185.376 280.476L184.878 272.673L182.572 237.577L173.845 280.736L164.93 327.485C165.138 327.673 165.294 327.91 165.384 328.176C165.473 328.441 165.493 328.725 165.441 329C165.359 329.384 165.146 329.728 164.838 329.973C164.53 330.217 164.147 330.347 163.754 330.34H151.652C151.398 330.339 151.148 330.28 150.921 330.168C150.694 330.055 150.495 329.891 150.342 329.689C150.188 329.488 150.083 329.253 150.035 329.004C149.987 328.755 149.997 328.498 150.065 328.254C150.167 327.902 150.382 327.594 150.677 327.376C150.971 327.159 151.329 327.045 151.696 327.051Z" fill="#2F2E41"/>
<path d="M162.458 100.252C162.457 102.744 163.068 105.197 164.237 107.398C165.406 109.598 167.097 111.478 169.163 112.872C171.228 114.266 173.605 115.132 176.083 115.394C178.562 115.656 181.067 115.306 183.378 114.374C185.69 113.442 187.737 111.957 189.34 110.05C190.944 108.143 192.054 105.871 192.574 103.435C193.095 100.998 193.008 98.4712 192.324 96.0757C191.639 93.6803 190.376 91.4895 188.646 89.6957L188.573 89.6228C188.452 89.4949 188.33 89.367 188.202 89.2452C188.201 89.2452 188.2 89.2451 188.199 89.2448C188.199 89.2445 188.198 89.244 188.197 89.2435C188.197 89.2429 188.196 89.2422 188.196 89.2415C188.196 89.2407 188.196 89.2399 188.196 89.2391C188.021 89.1117 187.86 88.9669 187.715 88.8069C185.659 85.9358 183.329 83.5283 177.684 85.0323C169.556 87.1977 162.458 91.8448 162.458 100.252Z" fill="#2F2E41"/>
<path d="M246.098 93.7368C246.132 94.5512 245.988 95.3631 245.674 96.1156C245.361 96.868 244.886 97.5426 244.284 98.0919C243.682 98.6411 242.966 99.0517 242.188 99.2946C241.409 99.5375 240.587 99.6069 239.779 99.4978L200.512 131.712L194.514 121.174L234.999 92.8221C235.272 91.4773 236.029 90.2795 237.127 89.4555C238.225 88.6316 239.587 88.2387 240.955 88.3515C242.323 88.4642 243.602 89.0747 244.55 90.0673C245.498 91.0599 246.049 92.3655 246.098 93.7369V93.7368Z" fill="#FFB6B6"/>
<path d="M183.931 141.212C183.931 141.212 185.21 143.865 190.186 140.096C194.169 137.079 213.184 124.062 217.407 118.559C218.294 118.959 219.288 119.054 220.234 118.827C221.179 118.6 222.023 118.065 222.631 117.307L212.242 107.308C208.982 107.528 208.949 109.709 209.228 110.961L200.879 114.277L179.133 126.766L182.973 139.31L183.931 141.212Z" fill="#E6E6E6"/>
<path d="M181.435 116.537C188.486 116.537 194.203 110.823 194.203 103.774C194.203 96.7253 188.486 91.0112 181.435 91.0112C174.383 91.0112 168.667 96.7253 168.667 103.774C168.667 110.823 174.383 116.537 181.435 116.537Z" fill="#FFB7B7"/>
<path d="M198.852 167.08L198.983 159.96C199.501 159.249 203.846 153.04 202.872 146.838C202.416 143.917 200.831 141.465 198.171 139.556L196.455 135.562L193.914 129.659L186.479 125.235L185.449 123.138L184.6 121.397L174.344 120.374L171.816 123.775L171.766 123.781C169.443 124.309 167.261 125.33 165.368 126.776C163.289 128.352 161.605 130.389 160.446 132.725C159.287 135.061 158.686 137.634 158.688 140.242L158.751 148.516L158.763 149.702L158.77 150.85L165.168 168.066L165.412 168.733L167.921 175.479L167.49 176.19C167.026 176.964 166.855 177.879 167.007 178.768C167.16 179.657 167.626 180.463 168.32 181.039L168.62 185.257L169.163 185.107L172.253 184.246L195.624 177.725C196.504 177.479 197.282 176.956 197.84 176.234C197.861 176.208 197.879 176.181 197.897 176.153C197.989 176.038 198.071 175.915 198.14 175.785C198.671 174.443 198.727 174.081 198.733 173.707C199.509 172.823 199.957 171.7 200.003 170.525C200.048 169.35 199.688 168.195 198.983 167.255L198.852 167.08Z" fill="#E6E6E6"/>
<path d="M168.073 107.12C168.189 107.102 168.304 107.077 168.42 107.059C170.412 106.706 172.403 106.359 174.389 106L174.571 101.501L176.977 105.531C182.464 107.351 187.599 106.322 192.428 104.052C194.022 103.296 195.567 102.444 197.057 101.501C197.548 93.8918 194.47 89.0206 188.744 89.5315C188.535 89.5501 188.384 89.3367 188.202 89.2453C188.201 89.2453 188.2 89.2452 188.199 89.2449C188.199 89.2446 188.198 89.2441 188.197 89.2435C188.197 89.243 188.196 89.2423 188.196 89.2415C188.196 89.2408 188.196 89.24 188.196 89.2392C187.885 89.0931 187.568 88.9531 187.252 88.8252C184.772 87.8567 182.069 87.6114 179.455 88.1179C176.842 88.6244 174.426 89.8619 172.488 91.6866C168.591 95.4065 166.836 101.549 168.073 107.12Z" fill="#2F2E41"/>
<path d="M176.392 85.3998C176.264 85.8395 176.011 86.2327 175.665 86.5318C175.318 86.8308 174.892 87.0229 174.438 87.0846C172.721 89.2061 170.755 91.4525 168.064 91.8768C167.295 92.0399 166.493 91.9014 165.823 91.4899C165.742 91.4385 165.666 91.3778 165.599 91.309C164.962 90.7037 164.912 89.4869 165.667 89.0314C162.284 90.373 160.305 94.0233 159.806 97.6238C159.306 101.224 159.999 104.862 160.455 108.469C160.911 112.075 161.11 115.863 159.693 119.214C158.02 123.164 154.175 126.003 149.98 126.908C149.606 126.989 149.231 127.057 148.85 127.101C148.597 125.388 147.962 123.755 146.99 122.321C147.247 123.98 147.095 125.677 146.547 127.263C143.393 127.22 140.295 126.419 137.514 124.93C133.713 122.927 130.548 119.869 127.957 116.443C132.421 119.607 138.588 120.793 143.445 118.29C147.789 116.044 150.355 111.327 151.478 106.572C152.602 101.811 147.879 95.9776 148.391 91.1167C148.909 86.2558 154.774 82.13 157.983 78.4423C160.03 76.0898 163.052 74.3488 166.167 74.6421C167.219 74.7423 168.237 75.068 169.151 75.5969C170.066 76.1258 170.856 76.8456 171.467 77.7072C172.079 78.5688 172.497 79.552 172.694 80.5898C172.891 81.6276 172.862 82.6956 172.609 83.7212C173.495 82.467 175.786 82.7415 176.354 84.1705C176.507 84.564 176.52 84.9977 176.392 85.3998Z" fill="#2F2E41"/>
<path d="M168.42 107.059C168.42 107.059 172.202 92.9466 188.415 89.6895C188.433 89.6835 188.494 89.6591 188.573 89.6226C188.622 89.5921 188.683 89.5616 188.744 89.5312C188.561 89.4277 188.385 89.3365 188.202 89.245C188.201 89.2451 188.2 89.2449 188.199 89.2446C188.199 89.2443 188.198 89.2439 188.197 89.2433C188.197 89.2427 188.196 89.242 188.196 89.2413C188.196 89.2406 188.196 89.2398 188.196 89.239C188.037 89.0929 187.879 88.9468 187.715 88.8067L187.252 88.825C187.252 88.825 170.984 86.2498 168.42 107.059Z" fill="#FD6584"/>
<path d="M209.109 174.31C208.964 173.942 208.721 173.622 208.406 173.384C208.091 173.145 207.717 172.998 207.324 172.958C206.536 172.89 205.743 173.005 205.007 173.293C202.12 174.255 199.527 175.94 197.476 178.188L197.511 179.616C196.548 180.844 196.034 182.365 196.054 183.925C196.074 185.485 196.628 186.991 197.623 188.194C198.185 188.886 198.951 189.382 199.813 189.611C200.243 189.718 200.695 189.707 201.12 189.579C201.545 189.451 201.927 189.211 202.227 188.884C203.09 187.833 202.673 186.25 202.038 185.048C200.931 182.956 199.31 181.18 197.328 179.885C200.638 179.801 203.888 178.993 206.852 177.519C207.509 177.232 208.101 176.816 208.595 176.296C208.839 176.034 209.013 175.715 209.103 175.368C209.193 175.021 209.195 174.657 209.109 174.31Z" fill="#2F2E41"/>
<path d="M268.451 258.359L262.273 258.604C260.728 261.459 259.904 264.648 259.872 267.894C263.548 263.444 270.588 264.037 275.517 261.032C277.047 260.083 278.344 258.802 279.311 257.284C280.278 255.766 280.892 254.05 281.105 252.263L283.414 248.536C280.555 248.009 277.616 248.107 274.8 248.825C271.983 249.543 269.356 250.862 267.098 252.692C265.842 253.732 264.722 254.925 263.764 256.245C266.122 257.151 268.451 258.359 268.451 258.359Z" fill="#F2F2F2"/>
<path d="M237.627 325.487L231.448 325.731C229.903 328.587 229.079 331.776 229.047 335.022C232.723 330.572 239.764 331.165 244.692 328.16C246.222 327.211 247.519 325.93 248.486 324.412C249.454 322.894 250.067 321.178 250.281 319.391L252.589 315.663C249.73 315.136 246.792 315.235 243.975 315.953C241.158 316.67 238.531 317.99 236.274 319.82C235.017 320.86 233.897 322.053 232.939 323.372C235.297 324.279 237.627 325.487 237.627 325.487Z" fill="#F2F2F2"/>
<path d="M92.0139 230.443L86.777 227.157C83.889 228.641 81.407 230.807 79.5466 233.468C85.0941 231.871 90.5696 236.335 96.3345 236.638C98.1333 236.718 99.9271 236.393 101.583 235.687C103.239 234.98 104.715 233.91 105.901 232.556L109.912 230.783C107.85 228.734 105.369 227.157 102.64 226.159C99.9097 225.161 96.9958 224.766 94.0988 225.003C92.4749 225.151 90.8761 225.504 89.3403 226.052C90.7734 228.131 92.0139 230.443 92.0139 230.443Z" fill="#F2F2F2"/>
<path d="M246.322 87.1061C246.199 86.279 247.096 85.6896 247.432 84.9237C247.648 84.2402 247.648 83.5069 247.432 82.8235C247.238 81.8951 247.015 80.9103 246.342 80.2412C245.655 79.664 244.809 79.3092 243.915 79.2241C241.743 78.845 239.525 78.8058 237.341 79.1078L238.998 79.2086C237.955 79.1421 236.908 79.2635 235.907 79.5671C235.409 79.7245 234.957 80.0046 234.595 80.3818C234.233 80.7589 233.971 81.221 233.834 81.7256C233.629 82.7478 234.328 83.9452 235.368 84.0327C234.849 83.927 234.309 84.031 233.866 84.3219C233.424 84.6127 233.114 85.0669 233.006 85.5851C232.897 86.1033 232.998 86.6433 233.287 87.0873C233.575 87.5313 234.028 87.8431 234.546 87.9545C234.307 88.6006 233.595 88.9099 232.986 89.2322C232.377 89.5545 231.736 90.1072 231.839 90.7883C231.975 91.6888 233.179 91.8739 234.089 91.8341L243.999 91.4019C244.852 91.4324 245.7 91.2564 246.471 90.8888C247.205 90.4606 247.717 89.522 247.378 88.7426C247.116 88.1405 246.419 87.7556 246.322 87.1061Z" fill="#3F3D56"/>
<path d="M131.395 175.33C130.033 181.31 129.385 188.091 133.018 193.443C134.562 195.739 136.828 197.455 139.457 198.319C142.118 199.108 144.924 199.28 147.662 198.823C153.857 197.965 159.364 194.739 165.457 193.487C168.146 192.934 170.999 192.751 173.588 193.815C175.527 194.612 177.57 196.214 177.579 198.5C177.589 200.847 175.549 202.405 173.521 203.127C170.815 204.09 168.002 203.717 165.195 203.596C162.172 203.465 159.089 203.738 156.578 205.589C154.418 207.274 152.761 209.519 151.788 212.08C150.526 215.143 150.013 218.435 149.206 221.631C148.485 224.504 147.464 227.293 146.161 229.953C143.604 235.167 140.02 239.812 135.623 243.607C133.455 245.472 130.82 247.373 127.859 247.544C125.575 247.676 122.798 246.716 121.918 244.404C121.591 243.405 121.623 242.324 122.009 241.346C122.394 240.369 123.109 239.557 124.03 239.05C125.987 238.063 128.119 239.471 128.751 241.405C128.917 241.85 128.975 242.329 128.92 242.801C128.866 243.274 128.7 243.726 128.437 244.122C127.844 245.007 129.273 245.834 129.863 244.955C131.232 242.915 130.516 240.171 128.84 238.537C128.022 237.703 126.929 237.196 125.764 237.109C124.599 237.022 123.443 237.362 122.51 238.065C121.542 238.802 120.809 239.806 120.403 240.954C119.997 242.101 119.935 243.342 120.224 244.524C120.929 247.065 123.426 248.68 125.919 249.081C128.998 249.575 131.962 248.365 134.447 246.618C136.941 244.818 139.209 242.724 141.201 240.382C145.251 235.726 148.295 230.285 150.143 224.398C151.961 218.576 152.093 210.885 157.494 206.953C160.273 204.93 163.678 205.154 166.937 205.34C169.813 205.504 172.619 205.474 175.258 204.172C177.437 203.098 179.195 201.114 179.231 198.586C179.268 196.035 177.455 193.983 175.32 192.821C169.679 189.75 162.905 192.226 157.364 194.278C151.791 196.341 145.428 198.763 139.505 196.592C136.772 195.53 134.571 193.428 133.386 190.747C131.952 187.707 131.748 184.257 132.079 180.958C132.274 179.211 132.578 177.478 132.987 175.769C133.222 174.734 131.631 174.293 131.395 175.33L131.395 175.33Z" fill="#3F3D56"/>
<path d="M158.743 208.612C158.236 207.974 157.875 207.232 157.686 206.439C157.496 205.647 157.483 204.822 157.647 204.024C157.811 203.225 158.148 202.472 158.635 201.818C159.121 201.164 159.745 200.625 160.463 200.238L152.069 175.398L158.923 149.074L169.975 154.069L163.155 173.924L168.257 202.825C168.828 204.073 168.92 205.487 168.517 206.799C168.115 208.11 167.245 209.229 166.072 209.942C164.899 210.656 163.505 210.914 162.155 210.669C160.804 210.424 159.59 209.692 158.743 208.612L158.743 208.612Z" fill="#FFB6B6"/>
<path d="M168.86 127.385C168.86 127.385 166.264 125.992 164.459 131.965C163.014 136.747 153.178 162.712 153.001 169.646C152.048 169.843 151.189 170.352 150.558 171.091C149.926 171.831 149.559 172.759 149.514 173.73L163.799 175.706C166.306 173.611 165.049 171.828 164.087 170.98L168.952 162.742L179.122 140.502L170.754 128.359L168.86 127.385Z" fill="#E6E6E6"/>
<path d="M141.516 158.552C139.883 164.002 137.422 169.168 134.217 173.87C133.425 175.026 132.592 176.152 131.718 177.249C131.04 176.015 130.217 174.867 129.269 173.826C125.939 170.167 121.475 167.774 117.143 165.375C112.811 162.976 108.413 160.401 105.352 156.51C103.979 154.759 102.996 152.735 102.468 150.574C101.774 147.641 102.039 144.582 103.75 142.133C106.238 138.573 111.198 137.319 115.414 138.347C119.636 139.376 123.17 142.309 125.911 145.676C125.014 141.539 129.379 137.544 133.601 137.907C137.823 138.276 141.208 141.962 142.331 146.045C143.459 150.122 142.727 154.491 141.516 158.552Z" fill="#3F51B5"/>
<path d="M223.128 7.1715C220.891 7.53662 218.751 8.35228 216.839 9.56898C214.927 10.7857 213.282 12.3781 212.004 14.2495C210.709 16.1817 209.846 18.3704 209.475 20.6664C209.103 22.9623 209.231 25.3114 209.851 27.5533C210.546 30.153 211.867 32.543 213.699 34.5149C214.425 35.2943 215.59 34.125 214.867 33.3477C213.424 31.7655 212.334 29.8954 211.668 27.8608C211.001 25.8262 210.775 23.6735 211.002 21.5448C211.247 19.499 211.925 17.5288 212.991 15.7651C214.056 14.0015 215.485 12.4847 217.183 11.3158C219.085 9.9831 221.27 9.10936 223.567 8.76321C224.614 8.6056 224.169 7.01478 223.128 7.17149V7.1715Z" fill="#3F3D56"/>
<g opacity="0.2">
<path opacity="0.2" d="M279.771 33.2105C279.018 34.1207 278.191 34.9673 277.299 35.7416C263.445 47.7475 252.188 60.909 243.838 74.8572L240.827 79.8863L240.623 80.233C239.914 79.6989 239.295 79.0543 238.79 78.3237C236.864 75.523 236.853 71.842 237.326 68.4746C238.758 58.3779 243.897 49.1748 251.742 42.6566C259.588 36.1383 269.579 32.7712 279.771 33.2105Z" fill="black"/>
</g>
<g opacity="0.2">
<path opacity="0.2" d="M134.217 173.871C133.425 175.026 132.592 176.153 131.718 177.249C131.04 176.016 130.217 174.867 129.269 173.827C125.939 170.168 121.475 167.774 117.143 165.375C112.811 162.976 108.413 160.401 105.352 156.511C103.979 154.76 102.996 152.736 102.468 150.574C112.206 151.924 121.155 156.669 127.733 163.972C130.367 166.937 132.552 170.272 134.217 173.871Z" fill="black"/>
</g>
<path d="M239.765 80.1118C240.981 80.1118 241.966 79.1264 241.966 77.9109C241.966 76.6953 240.981 75.71 239.765 75.71C238.549 75.71 237.563 76.6953 237.563 77.9109C237.563 79.1264 238.549 80.1118 239.765 80.1118Z" fill="#3F3D56"/>
</g>
<defs>
<clipPath id="clip0_948:9014">
<rect width="351" height="359" fill="white"/>
</clipPath>
</defs>
</svg>
