<svg width="262" height="337" viewBox="0 0 262 337" fill="none" xmlns="http://www.w3.org/2000/svg">
<path d="M228.5 270.808L228.5 8.80762L33.5 8.80762L33.5 270.808H228.5Z" fill="#2F2E41"/>
<path d="M262 0.807617H0V104.808H262V0.807617Z" fill="#3F3D56"/>
<path d="M262 116.808H0V220.808H262V116.808Z" fill="#3F3D56"/>
<path d="M262 232.808H0V336.808H262V232.808Z" fill="#3F3D56"/>
<path d="M262 44.9038H0V60.9038H262V44.9038Z" fill="#3F51B5"/>
<path d="M262 160.904H0V176.904H262V160.904Z" fill="#3F51B5"/>
<path d="M262 276.904H0V292.904H262V276.904Z" fill="#3F51B5"/>
<path d="M211 21.8076C214.314 21.8076 217 19.1213 217 15.8076C217 12.4939 214.314 9.80762 211 9.80762C207.686 9.80762 205 12.4939 205 15.8076C205 19.1213 207.686 21.8076 211 21.8076Z" fill="#3F51B5"/>
<path d="M232 21.8076C235.314 21.8076 238 19.1213 238 15.8076C238 12.4939 235.314 9.80762 232 9.80762C228.686 9.80762 226 12.4939 226 15.8076C226 19.1213 228.686 21.8076 232 21.8076Z" fill="#3F51B5"/>
<path d="M253 21.8076C256.314 21.8076 259 19.1213 259 15.8076C259 12.4939 256.314 9.80762 253 9.80762C249.686 9.80762 247 12.4939 247 15.8076C247 19.1213 249.686 21.8076 253 21.8076Z" fill="#3F51B5"/>
<path d="M211 135.808C214.314 135.808 217 133.121 217 129.808C217 126.494 214.314 123.808 211 123.808C207.686 123.808 205 126.494 205 129.808C205 133.121 207.686 135.808 211 135.808Z" fill="#3F51B5"/>
<path d="M232 135.808C235.314 135.808 238 133.121 238 129.808C238 126.494 235.314 123.808 232 123.808C228.686 123.808 226 126.494 226 129.808C226 133.121 228.686 135.808 232 135.808Z" fill="#3F51B5"/>
<path d="M253 135.808C256.314 135.808 259 133.121 259 129.808C259 126.494 256.314 123.808 253 123.808C249.686 123.808 247 126.494 247 129.808C247 133.121 249.686 135.808 253 135.808Z" fill="#3F51B5"/>
<path d="M211 249.808C214.314 249.808 217 247.121 217 243.808C217 240.494 214.314 237.808 211 237.808C207.686 237.808 205 240.494 205 243.808C205 247.121 207.686 249.808 211 249.808Z" fill="#3F51B5"/>
<path d="M232 249.808C235.314 249.808 238 247.121 238 243.808C238 240.494 235.314 237.808 232 237.808C228.686 237.808 226 240.494 226 243.808C226 247.121 228.686 249.808 232 249.808Z" fill="#3F51B5"/>
<path d="M253 249.808C256.314 249.808 259 247.121 259 243.808C259 240.494 256.314 237.808 253 237.808C249.686 237.808 247 240.494 247 243.808C247 247.121 249.686 249.808 253 249.808Z" fill="#3F51B5"/>
</svg>
